<svg width="24" height="24" viewBox="0 0 24 24" fill="none" xmlns="http://www.w3.org/2000/svg">
<rect width="24" height="24" fill="#F5F5F5"/>
<g id="Landing Page Desktop" clip-path="url(#clip0_0_1)">
<rect width="1440" height="5371" transform="translate(-204 -2113)" fill="black"/>
<g id="Section">
<g id="Text Block">
<g id="Tab Group">
<g id="Tab">
<g id="Rectangle 1287" filter="url(#filter0_d_0_1)">
<rect x="-22" y="-22" width="500" height="68" rx="4" fill="#D05404"/>
</g>
<g id="Group 239">
<g id="star">
<g id="feather">
<path id="Vector" d="M20.24 12.24C21.3658 11.1142 21.9983 9.58722 21.9983 7.99504C21.9983 6.40285 21.3658 4.87588 20.24 3.75004C19.1142 2.62419 17.5872 1.9917 15.995 1.9917C14.4028 1.9917 12.8758 2.62419 11.75 3.75004L5 10.5V19H13.5L20.24 12.24Z" stroke="white" stroke-width="2" strokeLinecap="round" strokeLinejoin="round"/>
<path id="Vector_2" d="M16 8L2 22" stroke="white" stroke-width="2" strokeLinecap="round" strokeLinejoin="round"/>
<path id="Vector_3" d="M17.5 15H9" stroke="white" stroke-width="2" strokeLinecap="round" strokeLinejoin="round"/>
</g>
</g>
</g>
</g>
</g>
</g>
</g>
</g>
<defs>
<filter id="filter0_d_0_1" x="-54" y="-50" width="564" height="132" filterUnits="userSpaceOnUse" color-interpolation-filters="sRGB">
<feFlood flood-opacity="0" result="BackgroundImageFix"/>
<feColorMatrix in="SourceAlpha" type="matrix" values="0 0 0 0 0 0 0 0 0 0 0 0 0 0 0 0 0 0 127 0" result="hardAlpha"/>
<feOffset dy="4"/>
<feGaussianBlur stdDeviation="16"/>
<feComposite in2="hardAlpha" operator="out"/>
<feColorMatrix type="matrix" values="0 0 0 0 0 0 0 0 0 0 0 0 0 0 0 0 0 0 0.08 0"/>
<feBlend mode="normal" in2="BackgroundImageFix" result="effect1_dropShadow_0_1"/>
<feBlend mode="normal" in="SourceGraphic" in2="effect1_dropShadow_0_1" result="shape"/>
</filter>
<clipPath id="clip0_0_1">
<rect width="1440" height="5371" fill="white" transform="translate(-204 -2113)"/>
</clipPath>
</defs>
</svg>
